<svg xmlns="http://www.w3.org/2000/svg" xmlns:xlink="http://www.w3.org/1999/xlink" viewBox="0 0 40 40"><path fill="#ffc49c" d="M3.5 32.926L3.5 13.675 20 9.516 36.5 13.675 36.5 32.926 20 38.473z"/><path fill="#a16a4a" d="M20,10.031l16,4.034v18.502l-16,5.378L4,32.567V14.065L20,10.031 M20,9L3,13.286v20L20,39l17-5.714 v-20L20,9L20,9z"/><path fill="#ebaa7f" d="M36,32.567l-16,5.378V13.031l16,1.034V32.567z"/><path fill="#ffdbc2" d="M20,18.231L4,14.065l16-4.034l16,4.034L20,18.231z"/><path fill="none" stroke="#a16a4a" stroke-linecap="round" stroke-width="1.5" d="M26.375 21.292L30.625 19.875"/><path fill="#66798f" d="M24 7.306L23 7.082 23 1 24 1zM30 8.653L29 8.429 29 3 30 3zM36 10L35 9.776 35 1 36 1zM16 7.306L17 7.082 17 1 16 1zM10 8.653L11 8.429 11 3 10 3z"/><g><path fill="#66798f" d="M4 10L5 9.776 5 1 4 1z"/></g></svg>